HIERARCHY
ROOT SpineBase
{
  OFFSET 0.000000 0.000000 0.000000
  CHANNELS 6 Xposition Yposition Zposition Zrotation Xrotation Yrotation
  JOINT SpineMid
  {
    OFFSET 0.000000 35.925500 0.000000
    CHANNELS 3 Zrotation Xrotation Yrotation
    JOINT SpineShoulder
    {
      OFFSET -0.286839 26.696170 -0.660107
      CHANNELS 3 Zrotation Xrotation Yrotation
      JOINT Neck
      {
        OFFSET -0.163794 8.600492 -0.588269
        CHANNELS 3 Zrotation Xrotation Yrotation
        JOINT Head
        {
          OFFSET -0.210873 11.645525 6.653816
          CHANNELS 3 Zrotation Xrotation Yrotation
          End Site
          {
            OFFSET 0 0 0
          }
        }
      }
      JOINT ShoulderLeft
      {
        OFFSET -14.917897 -4.693825 -10.744095
        CHANNELS 3 Zrotation Xrotation Yrotation
        JOINT ElbowLeft
        {
          OFFSET 29.312409 -13.762911 -12.591287
          CHANNELS 3 Zrotation Xrotation Yrotation
          JOINT WristLeft
          {
            OFFSET -10.287281 -17.975914 26.230039
            CHANNELS 3 Zrotation Xrotation Yrotation
            JOINT HandLeft
            {
              OFFSET -2.353760 -5.923556 6.476745
              CHANNELS 3 Zrotation Xrotation Yrotation
              JOINT HandTipLeft
              {
                OFFSET -0.742371 -0.727888 -0.642796
                CHANNELS 3 Zrotation Xrotation Yrotation
                End Site
                {
                  OFFSET 0 0 0
                }
              }
              JOINT ThumbLeft
              {
                OFFSET -1.209497 -0.524349 -2.311908
                CHANNELS 3 Zrotation Xrotation Yrotation
                End Site
                {
                  OFFSET 0 0 0
                }
              }
            }
          }
        }
      }
      JOINT ShoulderRight
      {
        OFFSET -1.021880 -4.437229 -12.448003
        CHANNELS 3 Zrotation Xrotation Yrotation
        JOINT ElbowRight
        {
          OFFSET 1.749073 -25.845123 -8.108467
          CHANNELS 3 Zrotation Xrotation Yrotation
          JOINT WristRight
          {
            OFFSET -7.234690 -25.221610 -4.227128
            CHANNELS 3 Zrotation Xrotation Yrotation
            JOINT HandRight
            {
              OFFSET -2.866686 -6.767503 0.520985
              CHANNELS 3 Zrotation Xrotation Yrotation
              JOINT HandTipRight
              {
                OFFSET -1.884360 -7.336524 1.383082
                CHANNELS 3 Zrotation Xrotation Yrotation
                End Site
                {
                  OFFSET 0 0 0
                }
              }
              JOINT ThumbRight
              {
                OFFSET 6.040137 0.786035 4.570247
                CHANNELS 3 Zrotation Xrotation Yrotation
                End Site
                {
                  OFFSET 0 0 0
                }
              }
            }
          }
        }
      }
    }
  }
  JOINT HipLeft
  {
    OFFSET -7.388114 -2.366057 -1.833035
    CHANNELS 3 Zrotation Xrotation Yrotation
    JOINT KneeLeft
    {
      OFFSET 13.466789 -36.529012 -7.201393
      CHANNELS 3 Zrotation Xrotation Yrotation
      JOINT AnkleLeft
      {
        OFFSET 6.620544 -34.676567 6.906804
        CHANNELS 3 Zrotation Xrotation Yrotation
        JOINT FootLeft
        {
          OFFSET -3.425154 -2.507332 -11.397513
          CHANNELS 3 Zrotation Xrotation Yrotation
          End Site
          {
            OFFSET 0 0 0
          }
        }
      }
    }
  }
  JOINT HipRight
  {
    OFFSET 5.253549 3.508917 -5.437079
    CHANNELS 3 Zrotation Xrotation Yrotation
    JOINT KneeRight
    {
      OFFSET -1.982598 -33.940243 -6.643242
      CHANNELS 3 Zrotation Xrotation Yrotation
      JOINT AnkleRight
      {
        OFFSET 8.312805 -39.125590 0.956161
        CHANNELS 3 Zrotation Xrotation Yrotation
        JOINT FootRight
        {
          OFFSET -3.761004 -7.651178 -3.156431
          CHANNELS 3 Zrotation Xrotation Yrotation
          End Site
          {
            OFFSET 0 0 0
          }
        }
      }
    }
  }
}
MOTION
Frames: 12
Frame Time: 0.033333
101.548819 77.910079 339.674914 -0.000000 0.000000 15.912458 0.000000 0.000000 -15.912458 -0.000000 0.000000 0.000000 -0.000000 0.000000 0.000000 0.000000 0.000000 0.000000 -0.000000 0.000000 0.000000 -0.000000 0.000000 0.000000 -0.000000 0.000000 0.000000 -0.000000 0.000000 0.000000 0.000000 0.000000 0.000000 0.000000 0.000000 0.000000 -0.000000 0.000000 0.000000 -0.000000 0.000000 0.000000 -0.000000 0.000000 0.000000 -0.000000 0.000000 0.000000 0.000000 0.000000 0.000000 0.000000 0.000000 0.000000 0.000000 0.000000 -15.912458 -0.000000 0.000000 0.000000 -0.000000 0.000000 0.000000 0.000000 0.000000 0.000000 0.000000 0.000000 -15.912458 -0.000000 0.000000 0.000000 -0.000000 0.000000 0.000000 0.000000 0.000000 0.000000
101.310578 78.789134 339.702265 -0.128043 -0.050138 15.725344 0.136839 0.013558 -15.725417 -0.000000 0.000000 0.000000 -0.000000 0.000000 0.000000 0.000000 0.000000 0.000000 -0.000000 0.000000 0.000000 -0.000000 0.000000 0.000000 -0.000000 0.000000 0.000000 -0.000000 0.000000 0.000000 0.000000 0.000000 0.000000 0.000000 0.000000 0.000000 -0.000000 0.000000 0.000000 -0.000000 0.000000 0.000000 0.961960 1.167865 -0.432342 -0.953322 -1.174927 0.412763 0.000000 0.000000 0.000000 0.000000 0.000000 0.000000 -0.642801 -0.537084 -15.884265 0.599217 0.742959 0.151401 0.652720 -0.931348 -1.768440 0.000000 0.000000 0.000000 0.136839 0.013558 -15.725417 -0.000000 0.000000 0.000000 -0.000000 0.000000 0.000000 0.000000 0.000000 0.000000
101.057549 79.807344 339.701131 -0.272896 -0.074200 15.494567 0.282800 -0.001400 -15.494740 -0.000000 0.000000 0.000000 -0.000000 0.000000 0.000000 0.000000 0.000000 0.000000 -0.000000 0.000000 0.000000 0.571487 0.507564 0.545989 0.129924 -0.183467 0.096281 -0.275360 -1.160525 -0.168983 0.000000 0.000000 0.000000 0.000000 0.000000 0.000000 -0.000000 0.000000 0.000000 -0.703136 -0.414339 0.233886 2.805882 2.351886 -0.960788 -2.764165 -1.586119 0.382493 0.000000 0.000000 0.000000 0.000000 0.000000 0.000000 -1.132224 -1.074179 -15.818091 1.069374 1.417598 0.296838 1.090731 -1.950308 -2.500862 0.000000 0.000000 0.000000 1.060151 -0.400661 -15.649286 -0.856238 0.174739 0.158579 -0.000000 0.000000 0.000000 0.000000 0.000000 0.000000
100.789732 80.964711 339.671512 -0.436156 -0.071222 15.219276 0.439556 -0.045774 -15.219371 -0.000000 0.000000 0.000000 -0.000000 0.000000 0.000000 0.000000 0.000000 0.000000 -0.000000 0.000000 0.000000 0.832318 0.736808 0.798296 0.152083 -0.280805 0.105339 -0.390596 -1.690893 -0.175220 0.000000 0.000000 0.000000 0.000000 0.000000 0.000000 0.155076 0.936147 0.013400 -1.069128 -1.448376 0.264735 4.302217 2.856094 -1.157880 -4.182709 -1.687195 0.309011 0.000000 0.000000 0.000000 0.000000 0.000000 0.000000 -1.473146 -1.609065 -15.709251 1.418970 2.022048 0.437212 1.363366 -3.072902 -2.276716 0.000000 0.000000 0.000000 1.571213 -0.772212 -15.439063 -1.284230 0.398821 0.232240 -0.000000 0.000000 0.000000 0.000000 0.000000 0.000000
100.507126 82.261233 339.613408 -0.619749 -0.039841 14.898082 0.609160 -0.120835 -14.897655 -0.000000 0.000000 0.000000 -0.000000 0.000000 0.000000 0.000000 0.000000 0.000000 -0.000000 0.000000 0.000000 1.072449 0.945195 1.033103 0.148042 -0.378724 0.089946 -0.485826 -2.190122 -0.125300 0.000000 0.000000 0.000000 0.000000 0.000000 0.000000 0.295382 0.975205 -0.029103 -1.324581 -1.513453 0.327977 5.834288 2.947379 -1.159304 -5.601722 -1.349197 0.094708 0.000000 0.000000 0.000000 0.000000 0.000000 0.000000 -1.672618 -2.141062 -15.552868 1.658412 2.556707 0.573152 1.511159 -4.329783 -1.104664 0.000000 0.000000 0.000000 2.072545 -1.244551 -15.172693 -1.706581 0.701132 0.302919 -0.000000 0.000000 0.000000 0.000000 0.000000 0.000000
100.209732 83.696912 339.526820 -0.825993 0.021758 14.529007 -0.103857 -0.057550 -14.552708 0.912066 0.060376 0.022719 -0.000000 0.000000 0.000000 0.000000 0.000000 0.000000 -0.000000 0.000000 0.000000 1.288963 1.129477 1.247729 0.120576 -0.474435 0.052285 -0.558872 -2.660341 -0.016893 0.000000 0.000000 0.000000 0.000000 0.000000 0.000000 0.483171 0.873322 -0.095910 -1.533274 -1.365748 0.384326 7.387446 2.655294 -0.958073 -7.003322 -0.595789 -0.238248 0.000000 0.000000 0.000000 0.000000 0.000000 0.000000 -1.738804 -2.670874 -15.343877 2.297001 3.871745 0.937001 1.037715 -6.609477 0.828656 0.000000 0.000000 0.000000 2.568106 -1.807863 -14.847039 -2.119801 1.071400 0.371117 -0.000000 0.000000 0.000000 0.000000 0.000000 0.000000
99.733723 85.980872 339.371077 -1.210600 0.118508 13.854422 -0.099681 -0.016818 -13.885097 1.303396 -0.077595 0.032274 -0.000000 0.000000 0.000000 0.000000 0.000000 0.000000 -0.000000 0.000000 0.000000 1.660490 1.449542 1.615638 0.042104 -0.653779 -0.039815 -0.751290 -3.326095 0.149469 0.000000 0.000000 0.000000 0.000000 0.000000 0.000000 0.829054 0.551989 -0.226290 -1.733885 -0.861924 0.445844 9.406952 1.716336 -0.355093 -8.359110 0.390549 -0.592669 0.000000 0.000000 0.000000 0.000000 0.000000 0.000000 -1.720350 -3.530105 -14.932235 2.835411 5.981231 1.449039 0.746950 -10.582597 5.040838 0.000000 0.000000 0.000000 3.372387 -2.655890 -14.223040 -2.711089 1.633094 0.472022 -0.000000 0.000000 0.000000 0.000000 0.000000 0.000000
99.313880 88.133905 339.181375 -1.566189 0.278153 13.268106 -0.108160 0.024870 -13.303058 0.919001 0.064825 -0.004215 0.758385 -0.341172 0.047619 0.000000 0.000000 0.000000 0.758385 -0.341172 0.047619 1.926984 1.671741 1.885301 -0.054768 -0.793339 -0.147664 -0.803368 -3.923661 0.411731 0.000000 0.000000 0.000000 0.000000 0.000000 0.000000 1.945928 -0.206877 -0.309913 -1.186782 -0.140760 0.361754 10.682853 0.379548 0.654617 -10.329335 2.928555 -1.484779 0.000000 0.000000 0.000000 0.000000 0.000000 0.000000 -1.448386 -4.165357 -14.511680 2.995955 7.793825 1.872849 0.684993 -14.633510 10.377127 0.000000 0.000000 0.000000 4.021553 -3.538787 -13.652514 -3.177027 2.218237 0.550956 -0.859192 -1.063490 0.869376 0.000000 0.000000 0.000000
98.993052 89.935398 338.985276 -1.853077 0.474119 12.787720 -0.108088 0.064954 -12.823128 0.961055 -0.048058 -0.013231 1.012298 -0.463762 0.064478 0.000000 0.000000 0.000000 1.012298 -0.463762 0.064478 2.030212 1.742039 1.999296 -0.131664 -0.852248 -0.234188 -0.674202 -4.314927 0.645688 0.000000 0.000000 0.000000 0.000000 0.000000 0.000000 2.553588 -0.924126 -0.431687 -1.544710 0.448406 0.520879 12.322155 -0.432743 1.238524 -11.454423 4.532541 -2.008944 0.000000 0.000000 0.000000 0.000000 0.000000 0.000000 -1.009293 -4.535920 -14.089404 2.788910 9.099789 2.172037 0.918772 -18.204164 16.260579 0.000000 0.000000 0.000000 4.489482 -4.354511 -13.162539 -3.510053 2.750407 0.606902 -0.913494 -1.693094 1.198245 0.000000 0.000000 0.000000
98.816345 91.155519 338.820801 -2.004141 0.667177 12.241740 -0.105730 0.098404 -12.274095 0.909963 -0.138912 -0.022847 1.921430 -0.150540 -0.309662 0.000000 0.000000 0.000000 1.219161 -0.599897 0.078307 1.929278 1.624532 1.916252 -0.157466 -0.802147 -0.267893 -0.515533 -4.341128 0.844002 0.000000 0.000000 0.000000 0.000000 0.000000 0.000000 2.952382 -1.668230 -0.504223 -1.742751 1.052276 0.632843 13.759910 -1.440243 1.945689 -13.120014 6.663856 -2.754236 0.000000 0.000000 0.000000 0.000000 0.000000 0.000000 -0.538123 -4.726046 -13.545810 2.256371 9.824728 2.348802 1.166410 -20.306847 21.572926 0.000000 0.000000 0.000000 4.736881 -4.952953 -12.595518 -3.698858 3.139310 0.637579 -0.734782 -2.358201 1.455058 0.000000 0.000000 0.000000
98.796371 91.486947 338.774945 -1.970309 0.790657 12.348540 -0.093365 0.111406 -12.376248 0.741425 -0.179262 -0.032939 1.991745 -0.148047 -0.267485 0.000000 0.000000 0.000000 1.344916 -0.697998 0.086839 1.607277 1.309740 1.617364 -0.127084 -0.637448 -0.240364 -0.278145 -4.067108 1.054377 0.000000 0.000000 0.000000 0.000000 0.000000 0.000000 3.175155 -2.249577 -0.546662 -1.845479 1.532896 0.705273 14.788305 -2.607668 2.733028 -14.174954 9.252464 -3.552448 0.000000 0.000000 0.000000 0.000000 0.000000 0.000000 -0.264610 -4.647094 -13.592573 1.579652 9.853814 2.352426 0.908596 -19.963125 24.204347 0.000000 0.000000 0.000000 4.678488 -5.268938 -12.687003 -3.751121 3.326587 0.644171 -0.477569 -2.847886 1.598352 0.000000 0.000000 0.000000
99.002612 90.653412 338.856622 -1.720471 0.833270 12.793630 -0.074654 0.094486 -12.815707 0.463609 -0.173127 -0.041687 1.834562 -0.024962 -0.172513 0.000000 0.000000 0.000000 1.351629 -0.733703 0.087079 1.070646 0.813633 1.106416 -0.063467 -0.374929 -0.168579 -0.145589 -3.415197 1.377823 0.000000 0.000000 0.000000 0.000000 0.000000 0.000000 3.109597 -2.685841 -0.545967 -1.777351 1.934027 0.715512 14.909693 -3.394960 3.206834 -14.463988 10.896478 -4.035256 0.000000 0.000000 0.000000 0.000000 0.000000 0.000000 -0.099408 -4.065369 -13.829190 0.748110 8.738179 2.049616 0.593187 -17.723748 23.639605 0.000000 0.000000 0.000000 4.254180 -5.172137 -13.122401 -3.596272 3.241448 0.612015 -0.180009 -3.227835 1.674331 0.000000 0.000000 0.000000
